<svg width="425" height="133" viewBox="0 0 425 133" fill="none" xmlns="http://www.w3.org/2000/svg">
<mask id="path-1-inside-1_8_3" fill="white">
<path fill-rule="evenodd" clip-rule="evenodd" d="M380.41 30.5977L424.423 100.867H336.396L380.41 30.5977ZM380.41 60.42L396.938 85.3928H363.884L380.41 60.42Z"></path>
</mask>
<path fill-rule="evenodd" clip-rule="evenodd" d="M380.41 30.5977L424.423 100.867H336.396L380.41 30.5977ZM380.41 60.42L396.938 85.3928H363.884L380.41 60.42Z" fill="#693EFE" stroke="#693EFE" stroke-width="2" mask="url(#path-1-inside-1_8_3)"></path>
<mask id="path-2-inside-2_8_3" fill="white">
<path d="M319.53 38.1485L319.513 38.1341C319.513 38.1341 319.323 37.9484 319.339 37.9653C313.675 32.5781 306.281 29.571 298.497 29.4673H298.037C289.298 29.4793 281.391 33.1255 275.748 38.9708L274.877 39.8727L273.958 38.9129L273.151 38.1485L273.131 38.1341C273.131 38.1341 272.943 37.9484 272.96 37.9653C267.293 32.5781 259.902 29.571 252.118 29.4673H251.655C234.577 29.489 220.666 43.3981 220.646 60.4759V100.853H236.285V60.4712C236.285 51.9974 243.179 45.103 251.653 45.103C260.107 45.103 266.989 51.966 267.023 60.4133V100.853H282.666V60.4712C282.666 51.9974 289.561 45.103 298.034 45.103C306.489 45.103 313.371 51.966 313.402 60.4133V100.853H329.043V60.447C329.043 52.0938 325.732 44.5074 320.355 38.9322L320.338 38.9129L319.53 38.1485Z"></path>
</mask>
<path d="M319.53 38.1485L319.513 38.1341C319.513 38.1341 319.323 37.9484 319.339 37.9653C313.675 32.5781 306.281 29.571 298.497 29.4673H298.037C289.298 29.4793 281.391 33.1255 275.748 38.9708L274.877 39.8727L273.958 38.9129L273.151 38.1485L273.131 38.1341C273.131 38.1341 272.943 37.9484 272.96 37.9653C267.293 32.5781 259.902 29.571 252.118 29.4673H251.655C234.577 29.489 220.666 43.3981 220.646 60.4759V100.853H236.285V60.4712C236.285 51.9974 243.179 45.103 251.653 45.103C260.107 45.103 266.989 51.966 267.023 60.4133V100.853H282.666V60.4712C282.666 51.9974 289.561 45.103 298.034 45.103C306.489 45.103 313.371 51.966 313.402 60.4133V100.853H329.043V60.447C329.043 52.0938 325.732 44.5074 320.355 38.9322L320.338 38.9129L319.53 38.1485Z" fill="#693EFE" stroke="#693EFE" stroke-width="2" mask="url(#path-2-inside-2_8_3)"></path>
<mask id="path-3-inside-3_8_3" fill="white">
<path d="M204.495 29.4673H177.289C165.297 29.4673 155.538 39.2264 155.538 51.2185C155.538 63.213 165.297 72.9695 177.289 72.9695H189.886C193.25 72.9695 195.985 75.7041 195.985 79.0681C195.985 82.4296 193.25 85.1642 189.886 85.1642H162.681V100.805H190.2C202.079 100.641 211.696 90.8239 211.614 78.9235C211.534 67.023 201.787 57.3362 189.886 57.3338H177.289C173.918 57.3338 171.179 54.5921 171.179 51.2209C171.179 47.8521 173.918 45.1127 177.289 45.1127H204.495V29.4673Z"></path>
</mask>
<path d="M204.495 29.4673H177.289C165.297 29.4673 155.538 39.2264 155.538 51.2185C155.538 63.213 165.297 72.9695 177.289 72.9695H189.886C193.25 72.9695 195.985 75.7041 195.985 79.0681C195.985 82.4296 193.25 85.1642 189.886 85.1642H162.681V100.805H190.2C202.079 100.641 211.696 90.8239 211.614 78.9235C211.534 67.023 201.787 57.3362 189.886 57.3338H177.289C173.918 57.3338 171.179 54.5921 171.179 51.2209C171.179 47.8521 173.918 45.1127 177.289 45.1127H204.495V29.4673Z" fill="#693EFE" stroke="#693EFE" stroke-width="2" mask="url(#path-3-inside-3_8_3)"></path>
<mask id="path-4-inside-4_8_3" fill="white">
<path d="M145.857 29.6929H130.218V100.925H145.857V29.6929Z"></path>
</mask>
<path d="M145.857 29.6929H130.218V100.925H145.857V29.6929Z" fill="#693EFE" stroke="#693EFE" stroke-width="2" mask="url(#path-4-inside-4_8_3)"></path>
<mask id="path-5-inside-5_8_3" fill="white">
<path d="M130 8.5C130 13.1944 133.806 17 138.5 17C143.194 17 147 13.1944 147 8.5C147 3.80558 143.194 0 138.5 0C133.806 0 130 3.80558 130 8.5Z"></path>
</mask>
<path d="M130 8.5C130 13.1944 133.806 17 138.5 17C143.194 17 147 13.1944 147 8.5C147 3.80558 143.194 0 138.5 0C133.806 0 130 3.80558 130 8.5Z" fill="#693EFE" stroke="#693EFE" stroke-width="2" mask="url(#path-5-inside-5_8_3)"></path>
<mask id="path-6-inside-6_8_3" fill="white">
<path d="M122.569 33.2799C118.628 30.8661 114.059 29.5203 109.417 29.4673C109.417 29.4673 109.021 29.4673 109.024 29.4673C106.745 29.4673 104.476 29.7641 102.276 30.3549L102.173 30.3836C90.9981 33.4775 83.2019 43.7141 83.1947 55.318V100.856H98.8522L99.1729 53.0801C99.1753 52.8124 99.2163 52.5449 99.2959 52.2893V52.2867C100.2 49.3785 102.33 47.0444 105.141 45.882C106.947 45.1321 108.874 44.932 110.714 45.2358C110.714 45.2358 111.573 45.378 111.705 45.3997C111.717 45.4022 111.729 45.4046 111.739 45.407C111.744 45.407 111.746 45.407 111.751 45.4094C112.002 45.4745 112.248 45.5517 112.491 45.6385C113.044 45.8339 113.581 46.0798 114.095 46.3716C114.097 46.374 114.1 46.3739 114.102 46.3763C114.112 46.3812 114.121 46.3884 114.131 46.3956C114.172 46.4246 114.285 46.5042 114.285 46.5042L122.569 33.2799Z"></path>
</mask>
<path d="M122.569 33.2799C118.628 30.8661 114.059 29.5203 109.417 29.4673C109.417 29.4673 109.021 29.4673 109.024 29.4673C106.745 29.4673 104.476 29.7641 102.276 30.3549L102.173 30.3836C90.9981 33.4775 83.2019 43.7141 83.1947 55.318V100.856H98.8522L99.1729 53.0801C99.1753 52.8124 99.2163 52.5449 99.2959 52.2893V52.2867C100.2 49.3785 102.33 47.0444 105.141 45.882C106.947 45.1321 108.874 44.932 110.714 45.2358C110.714 45.2358 111.573 45.378 111.705 45.3997C111.717 45.4022 111.729 45.4046 111.739 45.407C111.744 45.407 111.746 45.407 111.751 45.4094C112.002 45.4745 112.248 45.5517 112.491 45.6385C113.044 45.8339 113.581 46.0798 114.095 46.3716C114.097 46.374 114.1 46.3739 114.102 46.3763C114.112 46.3812 114.121 46.3884 114.131 46.3956C114.172 46.4246 114.285 46.5042 114.285 46.5042L122.569 33.2799Z" fill="#693EFE" stroke="#693EFE" stroke-width="2" mask="url(#path-6-inside-6_8_3)"></path>
<mask id="path-7-inside-7_8_3" fill="white">
<path fill-rule="evenodd" clip-rule="evenodd" d="M15.713 133V94.815L17.5336 95.8952C22.8556 99.0493 29.0651 100.86 35.6942 100.86C55.3956 100.86 71.3907 84.8654 71.3907 65.1639C71.3907 45.4624 55.3956 29.4673 35.6942 29.4673C15.9927 29.4673 0 45.4624 0 65.1639C0 65.5907 0.00722608 66.0175 0.0216947 66.4636V133H15.713ZM35.6942 45.1584C24.6546 45.1584 15.6912 54.1243 15.6912 65.1639C15.6912 76.2035 24.6546 85.1666 35.6942 85.1666C46.7361 85.1666 55.6995 76.2035 55.6995 65.1639C55.6995 54.1243 46.7361 45.1584 35.6942 45.1584Z"></path>
</mask>
<path fill-rule="evenodd" clip-rule="evenodd" d="M15.713 133V94.815L17.5336 95.8952C22.8556 99.0493 29.0651 100.86 35.6942 100.86C55.3956 100.86 71.3907 84.8654 71.3907 65.1639C71.3907 45.4624 55.3956 29.4673 35.6942 29.4673C15.9927 29.4673 0 45.4624 0 65.1639C0 65.5907 0.00722608 66.0175 0.0216947 66.4636V133H15.713ZM35.6942 45.1584C24.6546 45.1584 15.6912 54.1243 15.6912 65.1639C15.6912 76.2035 24.6546 85.1666 35.6942 85.1666C46.7361 85.1666 55.6995 76.2035 55.6995 65.1639C55.6995 54.1243 46.7361 45.1584 35.6942 45.1584Z" fill="#693EFE" stroke="#693EFE" stroke-width="2" mask="url(#path-7-inside-7_8_3)"></path>
</svg>